<?xml version="1.0" encoding="utf-8"?>
<!-- Generator: Adobe Illustrator 19.0.0, SVG Export Plug-In . SVG Version: 6.00 Build 0)  -->
<svg version="1.1" id="Capa_1" xmlns="http://www.w3.org/2000/svg" xmlns:xlink="http://www.w3.org/1999/xlink" x="0px" y="0px"
	 viewBox="-278 370 54 54" style="enable-background:new -278 370 54 54;" xml:space="preserve">
<style type="text/css">
	.st0{fill:#F49C6D;}
	.st1{fill:#FFFFFF;}
</style>
<g>
	<g>
		<path class="st0" d="M-251,371L-251,371c14.4,0,26,11.6,26,26l0,0c0,14.4-11.6,26-26,26l0,0c-14.4,0-26-11.6-26-26l0,0
			C-277,382.6-265.4,371-251,371z"/>
		<path class="st0" d="M-251,424c-14.9,0-27-12.1-27-27s12.1-27,27-27s27,12.1,27,27S-236.1,424-251,424z M-251,372
			c-13.8,0-25,11.2-25,25s11.2,25,25,25s25-11.2,25-25S-237.2,372-251,372z"/>
	</g>
</g>
<g id="XMLID_2_">
	<g id="XMLID_1_">
		<g>
			<polygon class="st1" points="-235.7,397.8 -240.3,397.8 -240.3,410 -247.9,410 -247.9,400.8 -254.1,400.8 -254.1,410 -261.7,410 
				-261.7,397.8 -266.3,397.8 -251,384 			"/>
		</g>
		<g>
		</g>
	</g>
</g>
</svg>
